<?xml version="1.0" encoding="UTF-8" standalone="no" ?>
<!DOCTYPE svg PUBLIC "-//W3C//DTD SVG 1.1//EN" "http://www.w3.org/Graphics/SVG/1.1/DTD/svg11.dtd">
<svg xmlns="http://www.w3.org/2000/svg" version="1.1" width="500" height="500" viewBox="0 0 500 500"
     xml:space="preserve">
<desc>Created with Fabric.js 4.6.0</desc>
<defs>
</defs>
<g transform="matrix(1 0 0 1 140.6 161.31)" id="pIu_OwE9XMmZSNFsvSjJf"  >
<path style="stroke: none; stroke-width: 1; stroke-dasharray: none; stroke-linecap: butt; stroke-dashoffset: 0; stroke-linejoin: miter; stroke-miterlimit: 4; fill: rgb(4,12,205); fill-rule: nonzero; opacity: 1;" vector-effect="non-scaling-stroke"  transform=" translate(-8, -8)" d="M 5.933 0.87 C 6.476772494092653 0.31352156973853396 7.221953234902934 -0.00019530647144050395 8 -0.00019530647144050395 C 8.778046765097066 -0.00019530647144050395 9.523227505907347 0.3135215697385333 10.067 0.8699999999999991 L 10.689 1.508 L 11.579 1.497 C 12.357280321236981 1.4877886105399574 13.106375156357437 1.7928931705082578 13.65674099292459 2.3432590070754094 C 14.207106829491742 2.893624843642561 14.512211389460042 3.6427196787630205 14.503 4.421 L 14.493 5.311 L 15.129 5.933 C 15.685478430261465 6.476772494092653 15.99919530647144 7.221953234902933 15.99919530647144 7.999999999999999 C 15.99919530647144 8.778046765097066 15.685478430261465 9.523227505907347 15.129000000000001 10.067 L 14.491999999999999 10.689 L 14.502999999999998 11.579 C 14.51221138946004 12.357280321236981 14.207106829491739 13.10637515635744 13.656740992924588 13.656740992924592 C 13.106375156357435 14.207106829491742 12.357280321236976 14.512211389460044 11.578999999999995 14.503 L 10.688999999999998 14.493 L 10.066999999999998 15.129 C 9.523227505907345 15.685478430261465 8.778046765097065 15.99919530647144 7.999999999999998 15.99919530647144 C 7.221953234902932 15.99919530647144 6.476772494092652 15.685478430261465 5.932999999999998 15.129 L 5.310999999999998 14.491999999999999 L 4.4209999999999985 14.502999999999998 C 3.6427196787630183 14.51221138946004 2.8936248436425602 14.20710682949174 2.3432590070754085 13.65674099292459 C 1.7928931705082567 13.106375156357437 1.487788610539956 12.35728032123698 1.496999999999998 11.578999999999999 L 1.5069999999999986 10.688999999999998 L 0.8709999999999986 10.066999999999998 C 0.3145215697385326 9.523227505907345 0.0008046935285580537 8.778046765097065 0.0008046935285580537 7.999999999999998 C 0.0008046935285580537 7.221953234902932 0.31452156973853185 6.476772494092652 0.8709999999999977 5.932999999999998 L 1.5079999999999987 5.310999999999998 L 1.4969999999999988 4.4209999999999985 C 1.4877886105399565 3.6427196787630183 1.792893170508256 2.8936248436425602 2.3432590070754076 2.3432590070754085 C 2.8936248436425593 1.7928931705082567 3.6427196787630187 1.4877886105399556 4.420999999999999 1.496999999999998 L 5.310999999999998 1.5069999999999986 L 5.932999999999998 0.8709999999999986 z M 7.002 11 C 7.001999989352655 11.357265597006393 7.192598910265618 11.687392627042888 7.5019999913968105 11.866025428619707 C 7.811401072528003 12.044658230196527 8.192598927471996 12.044658230196527 8.50200000860319 11.866025428619707 C 8.811401089734382 11.687392627042886 9.002000010647343 11.357265597006393 9.001999999999999 11 C 9.001999999999999 10.447715250169207 8.554284749830792 10 8.001999999999999 10 C 7.449715250169206 10 7.001999999999999 10.447715250169207 7.001999999999999 11 z M 8.604 8.972999999999999 C 8.643999999999998 8.438999999999998 8.802 8.158 9.45 7.712999999999999 C 10.123999999999999 7.2379999999999995 10.5 6.622999999999999 10.5 5.726999999999999 C 10.5 4.401999999999999 9.58 3.4999999999999996 8.238 3.4999999999999996 C 7.218 3.4999999999999996 6.446 3.9919999999999995 6.138 4.789999999999999 C 6.0446632201890305 5.007946084660307 5.997668389659223 5.242920237309344 6 5.480000000000001 C 6 5.873 6.203 6.12 6.545 6.12 C 6.817 6.12 7 5.973 7.109 5.61 C 7.267 5.018000000000001 7.634 4.695 8.183 4.695 C 8.793 4.695 9.213 5.141 9.213 5.779 C 9.213 6.342 9.004999999999999 6.664 8.391 7.104 C 7.772 7.537 7.465 8.018 7.465 8.744 L 7.465 8.855 C 7.465 9.283000000000001 7.673 9.6 8.05 9.6 C 8.386000000000001 9.6 8.554 9.36 8.604000000000001 8.972999999999999 z" stroke-linecap="round" />
</g>
</svg>