<?xml version="1.0" encoding="UTF-8" standalone="no"?>
<svg
        width="16"
        height="16"
        fill="currentColor"
        class="bi bi-patch-question-fill"
        viewBox="0 0 16 16"
        version="1.1"
        id="svg4"
        sodipodi:docname="patch-question-light-blue-optimized.svg"
        inkscape:version="1.1.2 (b8e25be8, 2022-02-05)"
        xmlns:inkscape="http://www.inkscape.org/namespaces/inkscape"
        xmlns:sodipodi="http://sodipodi.sourceforge.net/DTD/sodipodi-0.dtd"
        xmlns="http://www.w3.org/2000/svg"
>
  <defs
     id="defs8" />
  <sodipodi:namedview
     id="namedview6"
     pagecolor="#505050"
     bordercolor="#eeeeee"
     borderopacity="1"
     inkscape:pageshadow="0"
     inkscape:pageopacity="0"
     inkscape:pagecheckerboard="0"
     showgrid="false"
     inkscape:zoom="52.9375"
     inkscape:cx="8"
     inkscape:cy="6.6587957"
     inkscape:window-width="1296"
     inkscape:window-height="1027"
     inkscape:window-x="164"
     inkscape:window-y="25"
     inkscape:window-maximized="0"
     inkscape:current-layer="svg4" />
  <path
     d="m 5.4212354,1.0955109 a 2.456627,2.2587481 0 0 1 3.5140817,0 l 0.5287273,0.498644 0.7565396,-0.0086 a 2.456627,2.2587481 0 0 1 2.485528,2.2853216 l -0.0085,0.6956006 0.540628,0.4861389 a 2.456627,2.2587481 0 0 1 0,3.2310258 l -0.541478,0.4861389 0.0093,0.6956006 a 2.456627,2.2587481 0 0 1 -2.485478,2.2853237 l -0.7565396,-0.0078 -0.5287273,0.497081 a 2.456627,2.2587481 0 0 1 -3.5140817,0 L 4.8925081,11.742108 4.135969,11.750705 A 2.456627,2.2587481 0 0 1 1.6504405,9.465384 L 1.6589409,8.7697834 1.118313,8.2836445 a 2.456627,2.2587481 0 0 1 0,-3.2310258 L 1.6597909,4.5664798 1.6504405,3.8708792 A 2.456627,2.2587481 0 0 1 4.135969,1.5855576 l 0.7565391,0.00782 0.5287273,-0.4970809 z m 0.908697,7.9173419 a 0.85004395,0.78157374 0 1 0 1.7000879,0 0.85004395,0.78157374 0 0 0 -1.7000879,0 z M 7.6917028,7.4286029 C 7.7257046,7.0112425 7.8600115,6.7916203 8.41084,6.44382 8.9837696,6.0725724 9.3033861,5.5919046 9.3033861,4.8916145 c 0,-1.0355852 -0.7820404,-1.7405647 -1.9227994,-1.7405647 -0.8670448,0 -1.5232787,0.3845343 -1.7850923,1.0082301 a 1.4535752,1.3364911 0 0 0 -0.117306,0.5392859 c 0,0.3071585 0.1725589,0.5002072 0.4632739,0.5002072 0.231212,0 0.38677,-0.1148913 0.4794248,-0.3986026 0.1343069,-0.4626917 0.4462731,-0.71514 0.9129472,-0.71514 0.5185268,0 0.8755453,0.3485819 0.8755453,0.847226 0,0.440026 -0.1768092,0.6916927 -0.6987362,1.0355852 C 6.9844662,6.306263 6.7235027,6.6821999 6.7235027,7.2496225 v 0.086755 c 0,0.3345135 0.1768092,0.5822724 0.4972758,0.5822724 0.2856147,0 0.4284221,-0.1875777 0.4709243,-0.490047 z"
     id="path2"
     style="stroke-width:0.81509;fill:#00ffff" />
</svg>
