<?xml version="1.0" encoding="UTF-8"?>
<svg class="bi bi-patch-question-fill" width="16" height="16" fill="currentColor" version="1.1" viewBox="0 0 16 16" xmlns="http://www.w3.org/2000/svg">
 <path d="m5.4212 1.0955a2.4566 2.2587 0 0 1 3.5141 0l0.52873 0.49864 0.75654-0.0086a2.4566 2.2587 0 0 1 2.4855 2.2853l-0.0085 0.6956 0.54063 0.48614a2.4566 2.2587 0 0 1 0 3.231l-0.54148 0.48614 0.0093 0.6956a2.4566 2.2587 0 0 1-2.4855 2.2853l-0.75654-0.0078-0.52873 0.49708a2.4566 2.2587 0 0 1-3.5141 0l-0.52873-0.49788-0.75654 0.008597a2.4566 2.2587 0 0 1-2.4855-2.2853l0.0085004-0.6956-0.54063-0.48614a2.4566 2.2587 0 0 1 0-3.231l0.54148-0.48614-0.0093504-0.6956a2.4566 2.2587 0 0 1 2.4855-2.2853l0.75654 0.00782 0.52873-0.49708zm0.9087 7.9173a0.85004 0.78157 0 1 0 1.7001 0 0.85004 0.78157 0 0 0-1.7001 0zm1.3618-1.5842c0.034002-0.41736 0.16831-0.63698 0.71914-0.98478 0.57293-0.37125 0.89255-0.85192 0.89255-1.5522 0-1.0356-0.78204-1.7406-1.9228-1.7406-0.86704 0-1.5233 0.38453-1.7851 1.0082a1.4536 1.3365 0 0 0-0.11731 0.53929c0 0.30716 0.17256 0.50021 0.46327 0.50021 0.23121 0 0.38677-0.11489 0.47942-0.3986 0.13431-0.46269 0.44627-0.71514 0.91295-0.71514 0.51853 0 0.87555 0.34858 0.87555 0.84723 0 0.44003-0.17681 0.69169-0.69874 1.0356-0.52618 0.33842-0.78714 0.71436-0.78714 1.2818v0.086755c0 0.33451 0.17681 0.58227 0.49728 0.58227 0.28561 0 0.42842-0.18758 0.47092-0.49005z" fill="#0ff" stroke-width=".81509"/>
</svg>
